<svg xmlns="http://www.w3.org/2000/svg" viewBox="0 0 64 64">
  <defs>
    <linearGradient id="fSun" x1="0" y1="0" x2="0" y2="1">
      <stop offset="0" stop-color="#ffe600"/>
      <stop offset="0.5" stop-color="#ff8a3d"/>
      <stop offset="1" stop-color="#ff2e97"/>
    </linearGradient>
    <radialGradient id="fHalo" cx="0.5" cy="0.42" r="0.6">
      <stop offset="0" stop-color="#ffe600" stop-opacity="0.5"/>
      <stop offset="0.6" stop-color="#ff8a3d" stop-opacity="0.18"/>
      <stop offset="1" stop-color="#ffe600" stop-opacity="0"/>
    </radialGradient>
    <linearGradient id="fSky" x1="0" y1="0" x2="0" y2="1">
      <stop offset="0" stop-color="#0d0221"/>
      <stop offset="1" stop-color="#22063f"/>
    </linearGradient>
    <clipPath id="fSunClip"><circle cx="32" cy="28" r="19"/></clipPath>
  </defs>

  <rect width="64" height="64" rx="13" fill="url(#fSky)"/>

  <g fill="#fdf3ff">
    <circle cx="10" cy="9"  r="1.1"/><circle cx="52" cy="7"  r="0.8"/>
    <circle cx="57" cy="16" r="1.1"/><circle cx="7"  cy="22" r="0.8"/>
    <circle cx="22" cy="6"  r="0.7"/><circle cx="43" cy="11" r="0.7"/>
  </g>

  <circle cx="32" cy="28" r="27" fill="url(#fHalo)"/>

  <circle cx="32" cy="28" r="19" fill="url(#fSun)"/>
  <g clip-path="url(#fSunClip)" fill="#0d0221">
    <rect x="8" y="31"   width="48" height="2.1"/>
    <rect x="8" y="36"   width="48" height="2.5"/>
    <rect x="8" y="41.5" width="48" height="3"/>
  </g>

  <line x1="0" y1="47" x2="64" y2="47" stroke="#ff2e97" stroke-width="2.4"/>
  <g stroke="#ff2e97" stroke-width="1.1" opacity="0.85">
    <line x1="32" y1="47" x2="2"  y2="64"/>
    <line x1="32" y1="47" x2="17" y2="64"/>
    <line x1="32" y1="47" x2="32" y2="64"/>
    <line x1="32" y1="47" x2="47" y2="64"/>
    <line x1="32" y1="47" x2="62" y2="64"/>
  </g>
  <g stroke="#ff2e97" stroke-width="0.8" opacity="0.5">
    <line x1="0" y1="52.5" x2="64" y2="52.5"/>
    <line x1="0" y1="58.5" x2="64" y2="58.5"/>
  </g>

  <circle cx="26" cy="21" r="3.2" fill="#ffffaa" opacity="0.55"/>
</svg>
