<svg xmlns="http://www.w3.org/2000/svg" style="display:none">
<!-- All icons: 24x24 viewBox, stroke=currentColor, stroke-width=2, fill=none unless noted -->

<symbol id="plus" viewBox="0 0 24 24"><line x1="12" y1="5" x2="12" y2="19"/><line x1="5" y1="12" x2="19" y2="12"/></symbol>

<symbol id="edit" viewBox="0 0 24 24"><path d="M11 4H4a2 2 0 0 0-2 2v14a2 2 0 0 0 2 2h14a2 2 0 0 0 2-2v-7"/><path d="M18.5 2.5a2.121 2.121 0 0 1 3 3L12 15l-4 1 1-4 9.5-9.5z"/></symbol>

<symbol id="trash" viewBox="0 0 24 24"><polyline points="3 6 5 6 21 6"/><path d="M19 6v14a2 2 0 0 1-2 2H7a2 2 0 0 1-2-2V6m3 0V4a2 2 0 0 1 2-2h4a2 2 0 0 1 2 2v2"/></symbol>

<symbol id="play" viewBox="0 0 24 24" fill="currentColor"><polygon points="5 3 19 12 5 21 5 3"/></symbol>

<symbol id="pause" viewBox="0 0 24 24" fill="currentColor"><rect x="6" y="4" width="4" height="16"/><rect x="14" y="4" width="4" height="16"/></symbol>

<symbol id="send" viewBox="0 0 24 24"><line x1="22" y1="2" x2="11" y2="13"/><polygon points="22 2 15 22 11 13 2 9 22 2"/></symbol>

<symbol id="image" viewBox="0 0 24 24"><rect x="3" y="3" width="18" height="18" rx="2"/><circle cx="8.5" cy="8.5" r="1.5"/><polyline points="21 15 16 10 5 21"/></symbol>

<symbol id="voice" viewBox="0 0 24 24"><path d="M12 1a3 3 0 0 0-3 3v8a3 3 0 0 0 6 0V4a3 3 0 0 0-3-3z"/><path d="M19 10v2a7 7 0 0 1-14 0v-2"/><line x1="12" y1="19" x2="12" y2="23"/></symbol>

<symbol id="mic" viewBox="0 0 24 24"><rect x="9" y="1" width="6" height="13" rx="3"/><path d="M5 10v1a7 7 0 0 0 14 0v-1"/><line x1="12" y1="18" x2="12" y2="22"/><line x1="8" y1="22" x2="16" y2="22"/></symbol>

<symbol id="stop" viewBox="0 0 24 24" fill="currentColor"><rect x="6" y="6" width="12" height="12" rx="2"/></symbol>

<symbol id="regen" viewBox="0 0 24 24"><polyline points="23 4 23 10 17 10"/><path d="M20.49 15a9 9 0 1 1-2.12-9.36L23 10"/></symbol>

<symbol id="branch" viewBox="0 0 24 24"><line x1="6" y1="3" x2="6" y2="15"/><circle cx="18" cy="6" r="3"/><circle cx="6" cy="18" r="3"/><path d="M18 9a9 9 0 0 1-9 9"/></symbol>

<symbol id="back" viewBox="0 0 24 24"><polyline points="15 18 9 12 15 6"/></symbol>

<symbol id="settings" viewBox="0 0 24 24"><circle cx="12" cy="12" r="3"/><path d="M19.4 15a1.65 1.65 0 0 0 .33 1.82l.06.06a2 2 0 0 1-2.83 2.83l-.06-.06a1.65 1.65 0 0 0-1.82-.33 1.65 1.65 0 0 0-1 1.51V21a2 2 0 0 1-4 0v-.09A1.65 1.65 0 0 0 9 19.4a1.65 1.65 0 0 0-1.82.33l-.06.06a2 2 0 0 1-2.83-2.83l.06-.06A1.65 1.65 0 0 0 4.68 15a1.65 1.65 0 0 0-1.51-1H3a2 2 0 0 1 0-4h.09A1.65 1.65 0 0 0 4.6 9a1.65 1.65 0 0 0-.33-1.82l-.06-.06a2 2 0 0 1 2.83-2.83l.06.06A1.65 1.65 0 0 0 9 4.68a1.65 1.65 0 0 0 1-1.51V3a2 2 0 0 1 4 0v.09a1.65 1.65 0 0 0 1 1.51 1.65 1.65 0 0 0 1.82-.33l.06-.06a2 2 0 0 1 2.83 2.83l-.06.06A1.65 1.65 0 0 0 19.4 9a1.65 1.65 0 0 0 1.51 1H21a2 2 0 0 1 0 4h-.09a1.65 1.65 0 0 0-1.51 1z"/></symbol>

<symbol id="save" viewBox="0 0 24 24"><path d="M19 21H5a2 2 0 0 1-2-2V5a2 2 0 0 1 2-2h11l5 5v11a2 2 0 0 1-2 2z"/><polyline points="17 21 17 13 7 13 7 21"/><polyline points="7 3 7 8 15 8"/></symbol>

<symbol id="load" viewBox="0 0 24 24"><path d="M21 15v4a2 2 0 0 1-2 2H5a2 2 0 0 1-2-2v-4"/><polyline points="17 8 12 3 7 8"/><line x1="12" y1="3" x2="12" y2="15"/></symbol>

<symbol id="panel" viewBox="0 0 24 24"><rect x="3" y="3" width="18" height="18" rx="2"/><line x1="15" y1="3" x2="15" y2="21"/></symbol>

<symbol id="magic" viewBox="0 0 24 24"><path d="m12 3-1.9 5.8a2 2 0 0 1-1.3 1.3L3 12l5.8 1.9a2 2 0 0 1 1.3 1.3L12 21l1.9-5.8a2 2 0 0 1 1.3-1.3L21 12l-5.8-1.9a2 2 0 0 1-1.3-1.3L12 3Z"/></symbol>

<symbol id="ctrl" viewBox="0 0 24 24"><rect x="2" y="6" width="20" height="12" rx="2"/><path d="M12 12h.01M7 12h.01"/><path d="m16 10 1 2-1 2"/></symbol>

<symbol id="improve" viewBox="0 0 24 24"><path d="m12 3-1.9 5.8a2 2 0 0 1-1.3 1.3L3 12l5.8 1.9a2 2 0 0 1 1.3 1.3L12 21l1.9-5.8a2 2 0 0 1 1.3-1.3L21 12l-5.8-1.9a2 2 0 0 1-1.3-1.3L12 3Z"/></symbol>

<symbol id="user" viewBox="0 0 24 24"><path d="M20 21v-2a4 4 0 0 0-4-4H8a4 4 0 0 0-4 4v2"/><circle cx="12" cy="7" r="4"/></symbol>

<symbol id="check" viewBox="0 0 24 24"><polyline points="20 6 9 17 4 12"/></symbol>

<symbol id="download" viewBox="0 0 24 24"><path d="M21 15v4a2 2 0 0 1-2 2H5a2 2 0 0 1-2-2v-4"/><polyline points="7 10 12 15 17 10"/><line x1="12" y1="15" x2="12" y2="3"/></symbol>

<symbol id="upload" viewBox="0 0 24 24"><path d="M21 15v4a2 2 0 0 1-2 2H5a2 2 0 0 1-2-2v-4"/><polyline points="17 8 12 3 7 8"/><line x1="12" y1="3" x2="12" y2="15"/></symbol>

<symbol id="film" viewBox="0 0 24 24"><rect x="2" y="2" width="20" height="20" rx="2.18"/><line x1="7" y1="2" x2="7" y2="22"/><line x1="17" y1="2" x2="17" y2="22"/><line x1="2" y1="12" x2="22" y2="12"/><line x1="2" y1="7" x2="7" y2="7"/><line x1="2" y1="17" x2="7" y2="17"/><line x1="17" y1="17" x2="22" y2="17"/><line x1="17" y1="7" x2="22" y2="7"/></symbol>

<symbol id="x" viewBox="0 0 24 24"><line x1="18" y1="6" x2="6" y2="18"/><line x1="6" y1="6" x2="18" y2="18"/></symbol>

<symbol id="refresh" viewBox="0 0 24 24"><path d="M21 2v6h-6"/><path d="M3 12a9 9 0 0 1 15-6.7L21 8"/><path d="M3 22v-6h6"/><path d="M21 12a9 9 0 0 1-15 6.7L3 16"/></symbol>

<symbol id="warn" viewBox="0 0 24 24"><path d="M10.29 3.86L1.82 18a2 2 0 0 0 1.71 3h16.94a2 2 0 0 0 1.71-3L13.71 3.86a2 2 0 0 0-3.42 0z"/><line x1="12" y1="9" x2="12" y2="13"/><line x1="12" y1="17" x2="12.01" y2="17"/></symbol>

<symbol id="lock" viewBox="0 0 24 24"><rect x="3" y="11" width="18" height="11" rx="2"/><path d="M7 11V7a5 5 0 0 1 10 0v4"/></symbol>

<symbol id="key" viewBox="0 0 24 24"><path d="M21 2l-2 2m-7.61 7.61a5.5 5.5 0 1 1-7.778 7.778 5.5 5.5 0 0 1 7.777-7.777zm0 0L15.5 7.5m0 0l3 3L22 7l-3-3m-3.5 3.5L19 4"/></symbol>

<symbol id="chevron-down" viewBox="0 0 24 24"><polyline points="6 9 12 15 18 9"/></symbol>

<symbol id="chevron-right" viewBox="0 0 24 24"><polyline points="9 18 15 12 9 6"/></symbol>

<symbol id="sparkles" viewBox="0 0 24 24"><path d="M12 3l-1.9 5.8a2 2 0 0 1-1.3 1.3L3 12l5.8 1.9a2 2 0 0 1 1.3 1.3L12 21l1.9-5.8a2 2 0 0 1 1.3-1.3L21 12l-5.8-1.9a2 2 0 0 1-1.3-1.3L12 3z"/><path d="M5 3v4M19 17v4M3 5h4M17 19h4"/></symbol>

<symbol id="eye" viewBox="0 0 24 24"><path d="M1 12s4-8 11-8 11 8 11 8-4 8-11 8-11-8-11-8z"/><circle cx="12" cy="12" r="3"/></symbol>

<symbol id="eye-off" viewBox="0 0 24 24"><path d="M17.94 17.94A10.07 10.07 0 0 1 12 20c-7 0-11-8-11-8a18.45 18.45 0 0 1 5.06-5.94M9.9 4.24A9.12 9.12 0 0 1 12 4c7 0 11 8 11 8a18.5 18.5 0 0 1-2.16 3.19m-6.72-1.07a3 3 0 1 1-4.24-4.24"/><line x1="1" y1="1" x2="23" y2="23"/></symbol>

<symbol id="brain" viewBox="0 0 24 24"><path d="M12 5a3 3 0 1 0-5.997.142 4 4 0 0 0-2.526 5.77 4.189 4.189 0 0 0 .52 4.635A4 4 0 0 0 12 21a4 4 0 0 0 7.004-2.452 4.189 4.189 0 0 0 .52-4.636 4 4 0 0 0-2.526-5.77A3 3 0 1 0 12 5z"/></symbol>

<symbol id="relations" viewBox="0 0 24 24"><path d="M16 21v-2a4 4 0 0 0-4-4H6a4 4 0 0 0-4 4v2"/><circle cx="9" cy="7" r="4"/><path d="M22 21v-2a4 4 0 0 0-3-3.87"/><path d="M16 3.13a4 4 0 0 1 0 7.75"/></symbol>

<symbol id="cast" viewBox="0 0 24 24"><path d="M17 21v-2a4 4 0 0 0-4-4H5a4 4 0 0 0-4 4v2"/><circle cx="9" cy="7" r="4"/><path d="M23 21v-2a4 4 0 0 0-3-3.87"/><path d="M16 3.13a4 4 0 0 1 0 7.75"/></symbol>

<symbol id="bug" viewBox="0 0 24 24"><rect x="8" y="6" width="8" height="14" rx="4"/><path d="M19 7l-3 2M5 7l3 2M19 13l-3 0M5 13l3 0M19 19l-3-2M5 19l3-2M9 6V4a3 3 0 0 1 6 0v2"/></symbol>

<symbol id="arrow-down" viewBox="0 0 24 24"><line x1="12" y1="5" x2="12" y2="19"/><polyline points="19 12 12 19 5 12"/></symbol>

<symbol id="menu" viewBox="0 0 24 24"><line x1="3" y1="12" x2="21" y2="12"/><line x1="3" y1="6" x2="21" y2="6"/><line x1="3" y1="18" x2="21" y2="18"/></symbol>

</svg>
